<svg width="66" height="49" viewBox="0 0 66 49" fill="none" xmlns="http://www.w3.org/2000/svg">
<g filter="url(#filter0_dd_31_125)">
<rect x="9.61426" y="5" width="46.6143" height="30.0304" rx="5.37857" fill="white"/>
<rect x="9.5022" y="4.88795" width="46.8384" height="30.2545" rx="5.49062" stroke="#D6DCE5" stroke-width="0.224107"/>
<path d="M36.27 13.8484H29.4068V26.1819H36.27V13.8484Z" fill="#FF5F00"/>
<path d="M29.8426 20.0151C29.8415 18.8273 30.1107 17.6548 30.6297 16.5864C31.1487 15.518 31.904 14.5817 32.8384 13.8484C31.6813 12.9389 30.2916 12.3732 28.8283 12.2162C27.3649 12.0591 25.8869 12.3169 24.5631 12.9602C23.2393 13.6034 22.1232 14.6061 21.3424 15.8537C20.5615 17.1013 20.1475 18.5434 20.1475 20.0151C20.1475 21.4869 20.5615 22.929 21.3424 24.1766C22.1232 25.4241 23.2393 26.4269 24.5631 27.0701C25.8869 27.7133 27.3649 27.9712 28.8283 27.8141C30.2916 27.657 31.6813 27.0914 32.8384 26.1819C31.904 25.4485 31.1487 24.5122 30.6297 23.4438C30.1107 22.3754 29.8415 21.2029 29.8426 20.0151Z" fill="#EB001B"/>
<path d="M45.529 20.0151C45.529 21.4869 45.115 22.929 44.3342 24.1765C43.5534 25.4241 42.4374 26.4268 41.1136 27.0701C39.7899 27.7133 38.3118 27.9712 36.8485 27.8141C35.3851 27.657 33.9955 27.0914 32.8384 26.1819C33.772 25.4478 34.5267 24.5113 35.0457 23.4431C35.5646 22.3749 35.8343 21.2028 35.8343 20.0151C35.8343 18.8275 35.5646 17.6554 35.0457 16.5872C34.5267 15.5189 33.772 14.5825 32.8384 13.8484C33.9955 12.9389 35.3851 12.3732 36.8485 12.2162C38.3118 12.0591 39.7899 12.3169 41.1136 12.9602C42.4374 13.6034 43.5534 14.6062 44.3342 15.8537C45.115 17.1013 45.529 18.5434 45.529 20.0151Z" fill="#F79E1B"/>
<path d="M44.7807 24.8756V24.6231H44.8825V24.5716H44.6232V24.6231H44.725V24.8756H44.7807ZM45.2841 24.8756V24.5711H45.2046L45.1132 24.7805L45.0217 24.5711H44.9422V24.8756H44.9983V24.6459L45.0841 24.8439H45.1423L45.228 24.6454V24.8756H45.2841Z" fill="#F79E1B"/>
</g>
<defs>
<filter id="filter0_dd_31_125" x="0.425851" y="0.293736" width="64.9911" height="48.4072" filterUnits="userSpaceOnUse" color-interpolation-filters="sRGB">
<feFlood flood-opacity="0" result="BackgroundImageFix"/>
<feColorMatrix in="SourceAlpha" type="matrix" values="0 0 0 0 0 0 0 0 0 0 0 0 0 0 0 0 0 0 127 0" result="hardAlpha"/>
<feOffset dy="0.448214"/>
<feGaussianBlur stdDeviation="2.24107"/>
<feColorMatrix type="matrix" values="0 0 0 0 0.717647 0 0 0 0 0.717647 0 0 0 0 0.717647 0 0 0 0.08 0"/>
<feBlend mode="normal" in2="BackgroundImageFix" result="effect1_dropShadow_31_125"/>
<feColorMatrix in="SourceAlpha" type="matrix" values="0 0 0 0 0 0 0 0 0 0 0 0 0 0 0 0 0 0 127 0" result="hardAlpha"/>
<feOffset dy="4.48214"/>
<feGaussianBlur stdDeviation="4.48214"/>
<feColorMatrix type="matrix" values="0 0 0 0 0.717647 0 0 0 0 0.717647 0 0 0 0 0.717647 0 0 0 0.08 0"/>
<feBlend mode="normal" in2="effect1_dropShadow_31_125" result="effect2_dropShadow_31_125"/>
<feBlend mode="normal" in="SourceGraphic" in2="effect2_dropShadow_31_125" result="shape"/>
</filter>
</defs>
</svg>
