<svg width="66" height="49" viewBox="0 0 66 49" fill="none" xmlns="http://www.w3.org/2000/svg">
<g filter="url(#filter0_dd_31_127)">
<rect x="9.22852" y="5" width="46.6143" height="30.0304" rx="5.37857" fill="white"/>
<rect x="9.11646" y="4.88795" width="46.8384" height="30.2545" rx="5.49062" stroke="#D6DCE5" stroke-width="0.224107"/>
<path fill-rule="evenodd" clip-rule="evenodd" d="M19.4256 15.646H16.7381C16.5542 15.646 16.3978 15.7796 16.3691 15.9611L15.2821 22.8518C15.2605 22.9879 15.3658 23.1104 15.5038 23.1104H16.7868C16.9707 23.1104 17.1271 22.9768 17.1558 22.7949L17.449 20.9364C17.4772 20.7544 17.634 20.6209 17.8176 20.6209H18.6683C20.4387 20.6209 21.4603 19.7643 21.7273 18.0669C21.8475 17.3243 21.7324 16.7408 21.3845 16.332C21.0026 15.8835 20.325 15.646 19.4256 15.646ZM19.7356 18.1627C19.5887 19.127 18.8519 19.127 18.1394 19.127H17.7339L18.0184 17.3261C18.0353 17.2174 18.1296 17.1372 18.2396 17.1372H18.4255C18.9108 17.1372 19.3686 17.1372 19.6052 17.4138C19.7462 17.5789 19.7895 17.824 19.7356 18.1627ZM27.4592 18.1318H26.1722C26.0625 18.1318 25.9678 18.212 25.9509 18.3209L25.8939 18.6808L25.8039 18.5504C25.5253 18.146 24.9041 18.0109 24.284 18.0109C22.8617 18.0109 21.6471 19.0879 21.4105 20.5988C21.2876 21.3523 21.4623 22.0729 21.8899 22.5755C22.2821 23.0375 22.8433 23.2301 23.5109 23.2301C24.6568 23.2301 25.2924 22.4933 25.2924 22.4933L25.2349 22.8509C25.2133 22.9877 25.3185 23.1102 25.4557 23.1102H26.615C26.7994 23.1102 26.9549 22.9766 26.984 22.7948L27.6796 18.3904C27.7016 18.2549 27.5966 18.1318 27.4592 18.1318ZM25.6652 20.6364C25.541 21.3715 24.9574 21.865 24.2132 21.865C23.8395 21.865 23.5407 21.7452 23.3491 21.5181C23.1588 21.2926 23.0865 20.9715 23.147 20.614C23.2631 19.8851 23.8564 19.3756 24.5893 19.3756C24.9547 19.3756 25.2518 19.4968 25.4475 19.726C25.6435 19.9574 25.7214 20.2804 25.6652 20.6364ZM33.0201 18.1317H34.3134C34.4945 18.1317 34.6002 18.3348 34.4973 18.4833L30.1959 24.6914C30.1262 24.792 30.0115 24.8518 29.8889 24.8518H28.5972C28.4153 24.8518 28.3091 24.6471 28.4144 24.4982L29.7538 22.6078L28.3293 18.4279C28.28 18.2826 28.3873 18.1317 28.5419 18.1317H29.8127C29.9778 18.1317 30.1235 18.24 30.1711 18.398L30.9271 20.9226L32.7109 18.2955C32.7807 18.1929 32.8968 18.1317 33.0201 18.1317Z" fill="#253B80"/>
<path fill-rule="evenodd" clip-rule="evenodd" d="M47.0426 22.8512L48.1456 15.8345C48.1625 15.7256 48.2569 15.6454 48.3665 15.645H49.6082C49.7453 15.645 49.8506 15.7679 49.829 15.9039L48.7413 22.7943C48.713 22.9762 48.5566 23.1098 48.3723 23.1098H47.2634C47.1263 23.1098 47.021 22.9872 47.0426 22.8512ZM38.5957 15.6454H35.9077C35.7242 15.6454 35.5678 15.779 35.5391 15.9605L34.4521 22.8512C34.4305 22.9872 34.5358 23.1098 34.6731 23.1098H36.0523C36.1805 23.1098 36.2901 23.0163 36.3101 22.8891L36.6186 20.9358C36.6469 20.7538 36.8037 20.6203 36.9872 20.6203H37.8375C39.6082 20.6203 40.6297 19.7637 40.8969 18.0663C41.0174 17.3237 40.9016 16.7402 40.5539 16.3314C40.1722 15.8829 39.4951 15.6454 38.5957 15.6454ZM38.9057 18.1621C38.7592 19.1264 38.0223 19.1264 37.3094 19.1264H36.9043L37.1892 17.3255C37.2061 17.2168 37.2996 17.1366 37.41 17.1366H37.5958C38.0809 17.1366 38.5391 17.1366 38.7755 17.4132C38.9167 17.5783 38.9596 17.8234 38.9057 18.1621ZM46.6285 18.1312H45.3425C45.2319 18.1312 45.1381 18.2114 45.1215 18.3203L45.0646 18.6802L44.9742 18.5498C44.6956 18.1454 44.0748 18.0103 43.4546 18.0103C42.0324 18.0103 40.8181 19.0873 40.5815 20.5981C40.459 21.3517 40.633 22.0723 41.0605 22.5748C41.4535 23.0369 42.014 23.2294 42.6816 23.2294C43.8274 23.2294 44.4628 22.4927 44.4628 22.4927L44.4056 22.8503C44.3839 22.9871 44.4892 23.1096 44.6272 23.1096H45.786C45.9695 23.1096 46.1259 22.976 46.1546 22.7941L46.8506 18.3898C46.8719 18.2543 46.7666 18.1312 46.6285 18.1312ZM44.8347 20.6358C44.7113 21.3709 44.127 21.8644 43.3826 21.8644C43.0096 21.8644 42.7103 21.7446 42.5185 21.5175C42.3282 21.292 42.2568 20.9709 42.3166 20.6134C42.4332 19.8845 43.0258 19.375 43.7587 19.375C44.1242 19.375 44.4212 19.4962 44.6171 19.7253C44.8138 19.9568 44.8917 20.2798 44.8347 20.6358Z" fill="#179BD7"/>
</g>
<defs>
<filter id="filter0_dd_31_127" x="0.0401087" y="0.293736" width="64.9911" height="48.4072" filterUnits="userSpaceOnUse" color-interpolation-filters="sRGB">
<feFlood flood-opacity="0" result="BackgroundImageFix"/>
<feColorMatrix in="SourceAlpha" type="matrix" values="0 0 0 0 0 0 0 0 0 0 0 0 0 0 0 0 0 0 127 0" result="hardAlpha"/>
<feOffset dy="0.448214"/>
<feGaussianBlur stdDeviation="2.24107"/>
<feColorMatrix type="matrix" values="0 0 0 0 0.717647 0 0 0 0 0.717647 0 0 0 0 0.717647 0 0 0 0.08 0"/>
<feBlend mode="normal" in2="BackgroundImageFix" result="effect1_dropShadow_31_127"/>
<feColorMatrix in="SourceAlpha" type="matrix" values="0 0 0 0 0 0 0 0 0 0 0 0 0 0 0 0 0 0 127 0" result="hardAlpha"/>
<feOffset dy="4.48214"/>
<feGaussianBlur stdDeviation="4.48214"/>
<feColorMatrix type="matrix" values="0 0 0 0 0.717647 0 0 0 0 0.717647 0 0 0 0 0.717647 0 0 0 0.08 0"/>
<feBlend mode="normal" in2="effect1_dropShadow_31_127" result="effect2_dropShadow_31_127"/>
<feBlend mode="normal" in="SourceGraphic" in2="effect2_dropShadow_31_127" result="shape"/>
</filter>
</defs>
</svg>
