<svg width="66" height="49" viewBox="0 0 66 49" fill="none" xmlns="http://www.w3.org/2000/svg">
<g filter="url(#filter0_dd_31_123)">
<rect x="10" y="5" width="46.6143" height="30.0304" rx="5.37857" fill="white"/>
<rect x="9.88795" y="4.88795" width="46.8384" height="30.2545" rx="5.49062" stroke="#D6DCE5" stroke-width="0.224107"/>
<path d="M33.0222 15.1212L30.848 25.2848H28.2189L30.3935 15.1212H33.0222ZM44.0839 21.6839L45.4681 17.8671L46.2646 21.6839H44.0839ZM47.0173 25.2848H49.4492L47.3271 15.1212H45.0824C44.578 15.1212 44.1524 15.4146 43.963 15.8669L40.0185 25.2848H42.7795L43.3276 23.7671H46.7008L47.0173 25.2848ZM40.1555 21.9663C40.1668 19.2838 36.4459 19.1362 36.4716 17.9379C36.4794 17.5728 36.8271 17.1855 37.5866 17.0861C37.9639 17.0369 39.0013 16.9992 40.1793 17.5413L40.6406 15.386C40.0079 15.1563 39.1937 14.9353 38.1811 14.9353C35.5825 14.9353 33.7534 16.3169 33.738 18.2953C33.7216 19.7583 35.0437 20.5747 36.0399 21.0611C37.0642 21.5594 37.4084 21.8785 37.4039 22.324C37.3971 23.0063 36.5868 23.3068 35.8308 23.3187C34.5087 23.3396 33.7415 22.9619 33.13 22.6769L32.6536 24.9039C33.2677 25.186 34.4016 25.4312 35.578 25.4437C38.3396 25.4437 40.1465 24.0791 40.1555 21.9663ZM29.2653 15.1212L25.0056 25.2848H22.226L20.1299 17.1736C20.0025 16.674 19.8918 16.4913 19.5049 16.2806C18.8734 15.938 17.8295 15.616 16.9111 15.4165L16.9739 15.1212H21.4475C22.0175 15.1212 22.5306 15.5008 22.6599 16.1574L23.7671 22.039L26.503 15.1212H29.2653Z" fill="#1434CB"/>
</g>
<defs>
<filter id="filter0_dd_31_123" x="0.811593" y="0.293736" width="64.9911" height="48.4072" filterUnits="userSpaceOnUse" color-interpolation-filters="sRGB">
<feFlood flood-opacity="0" result="BackgroundImageFix"/>
<feColorMatrix in="SourceAlpha" type="matrix" values="0 0 0 0 0 0 0 0 0 0 0 0 0 0 0 0 0 0 127 0" result="hardAlpha"/>
<feOffset dy="0.448214"/>
<feGaussianBlur stdDeviation="2.24107"/>
<feColorMatrix type="matrix" values="0 0 0 0 0.717647 0 0 0 0 0.717647 0 0 0 0 0.717647 0 0 0 0.08 0"/>
<feBlend mode="normal" in2="BackgroundImageFix" result="effect1_dropShadow_31_123"/>
<feColorMatrix in="SourceAlpha" type="matrix" values="0 0 0 0 0 0 0 0 0 0 0 0 0 0 0 0 0 0 127 0" result="hardAlpha"/>
<feOffset dy="4.48214"/>
<feGaussianBlur stdDeviation="4.48214"/>
<feColorMatrix type="matrix" values="0 0 0 0 0.717647 0 0 0 0 0.717647 0 0 0 0 0.717647 0 0 0 0.08 0"/>
<feBlend mode="normal" in2="effect1_dropShadow_31_123" result="effect2_dropShadow_31_123"/>
<feBlend mode="normal" in="SourceGraphic" in2="effect2_dropShadow_31_123" result="shape"/>
</filter>
</defs>
</svg>
